<svg width="48" height="36" viewBox="0 0 48 36" fill="none" xmlns="http://www.w3.org/2000/svg">
<path d="M23.0824 5.11804C23.4304 4.31474 24.5696 4.31474 24.9176 5.11804L28.2293 12.7623C28.3877 13.128 28.7483 13.3647 29.1469 13.3647H39.096C40.1322 13.3647 40.4844 14.747 39.5745 15.2428L32.0678 19.3333C31.6134 19.5809 31.423 20.1342 31.6287 20.6089L34.6009 27.4696C34.979 28.3424 34.04 29.2004 33.2048 28.7453L24.4785 23.9902C24.1802 23.8277 23.8198 23.8277 23.5215 23.9902L14.7952 28.7453C13.96 29.2004 13.021 28.3424 13.3991 27.4696L16.3713 20.6089C16.577 20.1342 16.3866 19.5809 15.9322 19.3333L8.42551 15.2428C7.5156 14.747 7.86776 13.3647 8.90399 13.3647H18.8531C19.2517 13.3647 19.6123 13.128 19.7707 12.7623L23.0824 5.11804Z" fill="#FFC700" fill-opacity="0.74"/>
</svg>
